<svg width="521" height="135" viewBox="0 0 521 135" fill="none" xmlns="http://www.w3.org/2000/svg">
<circle cx="66" cy="66" r="62" stroke="black" stroke-width="8"/>
<circle cx="87" cy="44" r="13" fill="black"/>
<path d="M182.072 41.496C185.272 41.496 187.896 42.04 189.944 43.128L187.544 50.904C186.008 50.136 184.28 49.752 182.36 49.752C180.184 49.752 178.392 50.52 176.984 52.056C175.64 53.528 174.968 55.512 174.968 58.008V63.96H187.256V72.024H174.968V111H166.136V72.024H157.304V63.96H166.136V57.144C166.136 52.472 167.608 48.696 170.552 45.816C173.56 42.936 177.4 41.496 182.072 41.496ZM236.062 111H227.614V104.472H227.23C225.886 106.776 223.806 108.696 220.99 110.232C218.238 111.768 215.358 112.536 212.35 112.536C206.59 112.536 202.142 110.904 199.006 107.64C195.934 104.312 194.398 99.608 194.398 93.528V63.96H203.23V92.952C203.422 100.632 207.294 104.472 214.846 104.472C218.366 104.472 221.31 103.064 223.678 100.248C226.046 97.368 227.23 93.944 227.23 89.976V63.96H236.062V111ZM255.646 42.264V111H246.814V42.264H255.646ZM275.239 42.264V111H266.407V42.264H275.239ZM294.833 111H286.001V63.96H294.449V70.488H294.833C296.177 68.184 298.225 66.264 300.977 64.728C303.793 63.192 306.577 62.424 309.329 62.424C312.785 62.424 315.825 63.224 318.449 64.824C321.073 66.424 322.993 68.632 324.209 71.448C328.113 65.432 333.521 62.424 340.433 62.424C345.873 62.424 350.065 64.088 353.009 67.416C355.953 70.744 357.425 75.48 357.425 81.624V111H348.593V82.968C348.593 78.552 347.793 75.384 346.193 73.464C344.593 71.48 341.905 70.488 338.129 70.488C334.737 70.488 331.889 71.928 329.585 74.808C327.281 77.688 326.129 81.08 326.129 84.984V111H317.297V82.968C317.297 78.552 316.497 75.384 314.897 73.464C313.297 71.48 310.609 70.488 306.833 70.488C303.441 70.488 300.593 71.928 298.289 74.808C295.985 77.688 294.833 81.08 294.833 84.984V111ZM365.063 87.48C365.063 80.248 367.335 74.264 371.879 69.528C376.487 64.792 382.279 62.424 389.255 62.424C396.231 62.424 401.991 64.792 406.535 69.528C411.143 74.264 413.447 80.248 413.447 87.48C413.447 94.776 411.143 100.76 406.535 105.432C401.991 110.168 396.231 112.536 389.255 112.536C382.279 112.536 376.487 110.168 371.879 105.432C367.335 100.696 365.063 94.712 365.063 87.48ZM373.895 87.48C373.895 92.536 375.367 96.632 378.311 99.768C381.255 102.904 384.903 104.472 389.255 104.472C393.607 104.472 397.255 102.904 400.199 99.768C403.143 96.632 404.615 92.536 404.615 87.48C404.615 82.488 403.143 78.424 400.199 75.288C397.191 72.088 393.543 70.488 389.255 70.488C384.967 70.488 381.319 72.088 378.311 75.288C375.367 78.424 373.895 82.488 373.895 87.48ZM418.782 87.48C418.782 80.248 421.054 74.264 425.598 69.528C430.206 64.792 435.998 62.424 442.974 62.424C449.95 62.424 455.71 64.792 460.254 69.528C464.862 74.264 467.166 80.248 467.166 87.48C467.166 94.776 464.862 100.76 460.254 105.432C455.71 110.168 449.95 112.536 442.974 112.536C435.998 112.536 430.206 110.168 425.598 105.432C421.054 100.696 418.782 94.712 418.782 87.48ZM427.614 87.48C427.614 92.536 429.086 96.632 432.03 99.768C434.974 102.904 438.622 104.472 442.974 104.472C447.326 104.472 450.974 102.904 453.918 99.768C456.862 96.632 458.334 92.536 458.334 87.48C458.334 82.488 456.862 78.424 453.918 75.288C450.91 72.088 447.262 70.488 442.974 70.488C438.686 70.488 435.038 72.088 432.03 75.288C429.086 78.424 427.614 82.488 427.614 87.48ZM474.251 63.96H482.699V70.488H483.083C484.427 68.184 486.475 66.264 489.227 64.728C492.043 63.192 494.955 62.424 497.963 62.424C503.723 62.424 508.139 64.088 511.211 67.416C514.347 70.68 515.915 75.352 515.915 81.432V111H507.083V82.008C506.891 74.328 503.019 70.488 495.467 70.488C491.947 70.488 489.003 71.928 486.635 74.808C484.267 77.624 483.083 81.016 483.083 84.984V111H474.251V63.96Z" fill="black"/>
</svg>
