<svg width="150" height="158" viewBox="0 0 150 158" fill="none" xmlns="http://www.w3.org/2000/svg">
<rect width="150" height="158" fill="white"/>
<path d="M105.88 61.1512C103.742 56.3884 101.02 52.306 97.4238 48.7096C93.9246 45.2104 89.745 42.3916 85.0794 40.3504C80.3166 38.3092 75.3594 37.24 70.0134 37.24H44.1582L57.0858 50.2648H70.0134C73.5126 50.2648 76.9146 50.9452 80.025 52.2088C83.1354 53.5696 85.9542 55.5136 88.287 57.8464C90.717 60.2764 92.5638 62.998 93.9246 66.1084C95.2854 69.316 95.9658 72.6208 95.9658 76.12C95.9658 79.6192 95.2854 82.924 93.9246 86.1316C92.5638 89.242 90.717 91.9636 88.3842 94.3936C86.0514 96.8236 83.2326 98.6704 80.1222 100.031C77.0118 101.295 73.6098 101.975 70.0134 101.975H57.0858L44.1582 115H70.0134C75.3594 115 80.4138 113.931 85.0794 111.89C89.8422 109.848 94.0218 107.03 97.521 103.53C101.02 99.934 103.742 95.8516 105.88 91.0888C107.921 86.4232 108.893 81.466 108.893 76.12C108.893 70.774 107.921 65.8168 105.88 61.1512Z" fill="black"/>
</svg>
