<svg width="480" height="52" viewBox="0 0 480 52" fill="none" xmlns="http://www.w3.org/2000/svg">
<path d="M40.64 16.544C39.232 13.408 37.44 10.72 35.072 8.352C32.768 6.048 30.016 4.192 26.944 2.848C23.808 1.504 20.544 0.799999 17.024 0.799999H0L8.512 9.376H17.024C19.328 9.376 21.568 9.824 23.616 10.656C25.664 11.552 27.52 12.832 29.056 14.368C30.656 15.968 31.872 17.76 32.768 19.808C33.664 21.92 34.112 24.096 34.112 26.4C34.112 28.704 33.664 30.88 32.768 32.992C31.872 35.04 30.656 36.832 29.12 38.432C27.584 40.032 25.728 41.248 23.68 42.144C21.632 42.976 19.392 43.424 17.024 43.424H8.512L0 52H17.024C20.544 52 23.872 51.296 26.944 49.952C30.08 48.608 32.832 46.752 35.136 44.448C37.44 42.08 39.232 39.392 40.64 36.256C41.984 33.184 42.624 29.92 42.624 26.4C42.624 22.88 41.984 19.616 40.64 16.544ZM87.237 9.248L78.725 0.799999V52L87.237 43.424V9.248ZM140.91 30.688C142.702 30.688 144.174 31.328 145.454 32.608C146.67 33.888 147.375 35.36 147.375 37.088C147.375 37.984 147.182 38.816 146.862 39.584C146.542 40.416 146.094 41.056 145.518 41.632C144.942 42.208 144.238 42.656 143.406 42.976C142.638 43.296 141.806 43.424 140.91 43.424V52C145.07 52 148.59 50.528 151.47 47.648C154.414 44.704 155.886 41.184 155.886 37.088C155.886 32.992 154.414 29.472 151.47 26.528C148.59 23.648 145.07 22.176 140.91 22.176H128.174C126.318 22.176 124.846 21.536 123.566 20.256C122.35 18.976 121.774 17.504 121.774 15.712C121.774 14.88 121.902 14.048 122.222 13.28C122.542 12.512 122.99 11.808 123.566 11.232C124.206 10.592 124.846 10.144 125.678 9.824C126.446 9.504 127.278 9.376 128.174 9.376V0.799999C124.014 0.799999 120.494 2.272 117.614 5.216C114.734 8.16 113.262 11.616 113.262 15.712C113.262 19.872 114.734 23.392 117.614 26.336C120.494 29.216 124.014 30.688 128.174 30.688H140.91ZM198.669 49.952C201.741 51.296 205.069 52 208.589 52C212.109 52 215.437 51.36 218.509 50.016L208.589 43.424C206.221 43.424 204.045 42.976 201.933 42.144C199.885 41.248 198.093 40.032 196.557 38.432C194.957 36.896 193.741 35.104 192.845 33.056C191.949 30.944 191.501 28.768 191.501 26.4C191.501 24.032 191.949 21.856 192.845 19.744C193.741 17.696 194.957 15.904 196.493 14.368C198.029 12.768 199.821 11.552 201.933 10.656C203.981 9.824 206.221 9.376 208.589 9.376C213.197 9.376 217.229 10.976 220.621 14.304L226.701 8.352C224.333 5.984 221.581 4.128 218.509 2.784C215.437 1.44 212.109 0.799999 208.589 0.799999C205.069 0.799999 201.741 1.504 198.669 2.848C195.533 4.192 192.845 5.984 190.477 8.352C188.173 10.656 186.317 13.344 184.973 16.416C183.629 19.552 182.925 22.88 182.925 26.4C182.925 29.856 183.629 33.12 184.973 36.256C186.317 39.392 188.173 42.08 190.477 44.448C192.845 46.752 195.533 48.608 198.669 49.952ZM280.187 0.799999C273.083 0.799999 267.067 3.36 262.139 8.352C257.147 13.344 254.587 19.36 254.587 26.4C254.587 33.504 257.147 39.456 262.139 44.448C267.131 49.44 273.083 52 280.187 52C287.291 52 293.243 49.44 298.235 44.448C303.291 39.52 305.851 33.504 305.851 26.4C305.851 19.36 303.291 13.344 298.235 8.352C293.243 3.36 287.291 0.799999 280.187 0.799999ZM280.187 9.376C284.859 9.376 288.891 11.04 292.219 14.368C295.547 17.696 297.211 21.728 297.211 26.4C297.211 31.072 295.611 35.104 292.219 38.496C288.891 41.824 284.859 43.424 280.187 43.424C275.515 43.424 271.419 41.824 268.091 38.496C264.763 35.168 263.163 31.072 263.163 26.4C263.163 21.728 264.763 17.696 268.091 14.368C271.483 10.976 275.515 9.376 280.187 9.376ZM326.875 0.799999L352.475 52L357.275 42.464L336.411 0.799999H326.875ZM380.725 51.296V52H414.837V43.424H389.237L380.725 51.296ZM380.725 0.799999L389.237 9.376H414.837V0.799999H380.725ZM380.725 22.176V30.688H389.237H414.837V22.176H389.237H380.725ZM476.055 27.488C478.103 24.608 479.063 21.408 479.063 17.824C479.063 13.152 477.399 9.184 474.071 5.792C470.743 2.464 466.711 0.799999 462.039 0.799999H439.575L443.991 8.416L444.951 9.376H462.039C464.343 9.376 466.327 10.208 467.991 11.872C469.719 13.536 470.551 15.52 470.551 17.824C470.551 20.192 469.719 22.24 467.991 23.904C466.327 25.568 464.343 26.4 462.039 26.4L454.423 26.336L469.271 52H479.063L468.567 33.632C471.575 32.416 474.071 30.368 476.055 27.488Z" fill="white"/>
</svg>
